<svg width="34" height="23" viewBox="0 0 34 23" fill="none" xmlns="http://www.w3.org/2000/svg">
<path d="M22.2812 11.5898L33.4032 18.6209V4.26172L22.2812 11.5898Z" fill="#6E5CF0"/>
<path d="M0.414062 4.26172V18.6209L11.536 11.5898L0.414062 4.26172Z" fill="#6E5CF0"/>
<path d="M31.3434 0.0820312H2.47662C1.44772 0.0820312 0.631206 0.849068 0.476562 1.83672L16.91 12.6638L33.3435 1.83672C33.1889 0.849068 32.3723 0.0820312 31.3434 0.0820312Z" fill="#6E5CF0"/>
<path d="M20.3944 12.838L17.4768 14.7597C17.3036 14.8731 17.1078 14.9288 16.9098 14.9288C16.7119 14.9288 16.516 14.8731 16.3428 14.7597L13.4252 12.8359L0.480469 21.0238C0.639237 22.0032 1.45163 22.7641 2.4764 22.7641H31.3432C32.368 22.7641 33.1804 22.0032 33.3392 21.0238L20.3944 12.838Z" fill="#6E5CF0"/>
</svg>
