<svg width="87" height="91" viewBox="0 0 87 91" fill="none" xmlns="http://www.w3.org/2000/svg">
<path d="M41.0381 90.5862C19.5561 91.3363 2.09084 90.492 2.02827 88.7002C1.9657 86.9085 19.3296 84.8478 40.8115 84.0977C62.2935 83.3475 79.7588 84.1919 79.8214 85.9836C79.8839 87.7754 62.5201 89.836 41.0381 90.5862Z" fill="#472D70"/>
<path d="M69.3125 55.7877C69.7395 54.7538 69.8388 53.6155 69.658 52.4175C70.3358 51.9306 71.0127 51.4205 71.6674 50.9345C73.9479 54.5604 74.7159 57.9844 73.5406 60.8046C70.8466 67.2212 58.9 68.6574 44.3949 65.1342C48.4719 63.8338 52.7202 62.1338 57.0226 59.9918C63.3146 60.4437 67.879 59.1728 69.3125 55.7877Z" fill="url(#paint0_linear_0_67)"/>
<path d="M45.0819 31.0886C54.2087 35.1239 61.8667 40.2064 67.001 45.3075C66.7523 45.4783 66.5035 45.6491 66.2555 45.843C62.1158 40.7072 54.539 35.2977 45.0819 31.0886Z" fill="url(#paint1_linear_0_67)"/>
<path d="M44.1019 57.409C48.8294 58.8188 53.2145 59.708 56.9994 59.9927C52.7194 62.1108 48.4487 63.8346 44.3717 65.1349C40.2139 64.1221 35.8574 62.7226 31.4161 60.886C35.1719 60.3379 39.4843 59.1451 44.1019 57.409Z" fill="url(#paint2_linear_0_67)"/>
<path d="M66.2547 45.8198C66.5035 45.649 66.7523 45.4782 67.0003 45.2843C68.9195 47.1858 70.4677 49.0772 71.6435 50.912C70.9896 51.4212 70.335 51.9073 69.634 52.395C69.3325 50.3906 68.1422 48.1394 66.2547 45.8198Z" fill="url(#paint3_linear_0_67)"/>
<path d="M21.1947 47.3938C20.9346 47.2407 20.6745 47.0877 20.4136 46.9115C25.1796 41.4647 32.4645 35.8604 41.2876 31.1983C32.171 36.0791 24.99 42.004 21.1947 47.3938Z" fill="#0017A0" fill-opacity="0.39"/>
<path d="M16.1751 52.8724C16.8629 53.3348 17.5499 53.7738 18.2832 54.2114C18.1632 55.4199 18.3647 56.5477 18.8629 57.5493C20.529 60.8261 25.1478 61.7765 31.4393 60.8851C35.1728 60.361 39.4851 59.1684 44.1251 57.4084C47.3941 56.1826 50.7922 54.6743 54.2516 52.9323C58.6896 50.693 62.7509 48.2815 66.2786 45.8424C66.5274 45.6716 66.7762 45.5008 67.0242 45.3068C76.2206 38.7326 81.3792 31.9288 78.9906 27.195C75.7565 20.8001 60.5108 21.9346 44.475 29.6278C63.3793 20.5144 81.5428 19.3706 85.5233 27.2448C88.5091 33.162 82.6282 42.4922 71.6674 50.9345C71.0135 51.4437 70.3589 51.9298 69.658 52.4175C66.0888 54.9971 62.0522 57.454 57.6597 59.6686C57.4316 59.7692 57.2275 59.8921 56.9994 59.9927C52.7194 62.1108 48.4487 63.8346 44.3717 65.1349C30.1477 69.6614 18.13 69.0622 14.995 62.8491C13.625 60.0947 14.1531 56.6486 16.1751 52.8724Z" fill="white" fill-opacity="0.82"/>
<path d="M62.656 48.2154C63.9023 47.4307 65.1256 46.6469 66.2786 45.8424C66.5274 45.6716 66.7762 45.5008 67.0242 45.3068C76.2206 38.7326 81.3792 31.9288 78.9906 27.195C75.7565 20.8001 60.5108 21.9346 44.475 29.6278C63.3793 20.5144 81.5428 19.3706 85.5233 27.2448C88.5091 33.162 82.6282 42.4922 71.6674 50.9345C71.0135 51.4437 70.3589 51.9298 69.658 52.4175C66.0888 54.9971 62.0522 57.454 57.6597 59.6686C57.4316 59.7692 57.2275 59.8921 56.9994 59.9927C53.9714 61.488 50.9593 62.7744 48.01 63.8732C53.7895 59.5953 59.102 54.5463 62.656 48.2154Z" fill="#BAC0E4"/>
<path d="M21.1947 47.3938C19.4737 49.8393 18.4657 52.1438 18.2832 54.2114C17.5731 53.773 16.8621 53.3116 16.1751 52.8724C17.22 50.96 18.6325 48.9654 20.4143 46.9346C20.6744 47.0877 20.9346 47.2407 21.1947 47.3938Z" fill="url(#paint4_linear_0_67)"/>
<path d="M0.700496 30.2067C4.12284 22.0972 22.3211 21.948 41.815 29.7205C25.2817 23.1647 9.99397 23.0964 7.21387 29.7014C5.16046 34.5671 10.7817 41.0179 20.4143 46.9346C20.6744 47.0877 20.9347 47.2404 21.1956 47.4166C24.8857 49.6269 29.1046 51.726 33.6879 53.6503C37.2604 55.1467 40.7785 56.4134 44.1019 57.409C39.4843 59.1451 35.1719 60.3379 31.4161 60.886C31.1815 60.8015 30.9702 60.7163 30.7349 60.6087C26.1986 58.7059 22.0004 56.5365 18.26 54.2122C17.5499 53.7738 16.839 53.3123 16.1521 52.8731C4.65223 45.2151 -1.86606 36.2947 0.700496 30.2067Z" fill="url(#paint5_linear_0_67)"/>
<path d="M0.700496 30.2067C4.12284 22.0972 22.3211 21.948 41.815 29.7205C25.2817 23.1647 9.99397 23.0964 7.21387 29.7014C5.374 34.0502 9.69252 39.6662 17.499 45.0214C20.2 50.7402 24.4537 55.8257 29.3227 59.9634C25.3473 58.2031 21.6206 56.2719 18.2832 54.2114C17.5731 53.773 16.8621 53.3116 16.1751 52.8724C4.65213 45.2153 -1.86606 36.2947 0.700496 30.2067Z" fill="url(#paint6_linear_0_67)"/>
<path d="M43.1688 68.4889C35.2398 69.5764 29.1766 72.3588 29.4704 74.8035C29.7674 77.3407 36.6937 78.0483 44.9959 77.0405C53.2982 76.0326 59.8403 73.6966 59.5433 71.1594C59.2487 68.6916 52.697 67.4382 44.7361 68.272C54.1271 67.2725 61.8937 68.8309 62.254 71.8522C62.6406 74.9652 55.0501 78.4495 45.2946 79.6239C35.5622 80.7975 27.3553 79.2314 26.9687 76.1183C26.6324 73.1193 33.8097 69.7421 43.1688 68.4889Z" fill="url(#paint7_linear_0_67)"/>
<path d="M68.6788 11.1116C63.2623 11.8565 59.1361 13.7376 59.3338 15.4213C59.5332 17.1514 64.2746 17.6343 69.9248 16.9506C75.5982 16.2661 80.0588 14.6745 79.8594 12.9444C79.6616 11.2607 75.1857 10.4211 69.7627 10.9811C76.1771 10.2939 81.4715 11.3596 81.7293 13.435C81.9887 15.5566 76.8146 17.9375 70.149 18.7261C63.5073 19.537 57.9113 18.4586 57.652 16.337C57.395 14.2847 62.294 11.983 68.6788 11.1116Z" fill="url(#paint8_linear_0_67)"/>
<path d="M15.7771 12.959C21.2324 13.3244 25.4797 14.913 25.3999 16.6065C25.3217 18.3462 20.6255 19.1586 14.9413 18.8708C9.23405 18.5837 4.67334 17.3071 4.75154 15.5674C4.83137 13.874 9.23786 12.7242 14.6867 12.9045C8.23998 12.6664 3.03277 14.0989 2.92042 16.1872C2.80968 18.3217 8.13725 20.3358 14.8416 20.6576C21.5237 21.0032 27.0308 19.5371 27.1415 17.4026C27.2547 15.3374 22.2071 13.383 15.7771 12.959Z" fill="url(#paint9_linear_0_67)"/>
<path d="M41.94 29.3226L40.9813 27.7349C40.8584 27.5307 40.9644 27.2491 41.1933 27.1716C41.6287 27.0406 42.2939 26.8553 43.011 26.8302C43.728 26.8052 44.4037 26.9206 44.848 27.044C45.0818 27.1053 45.2063 27.3557 45.0987 27.5911L44.2531 29.2418L43.8599 29.2555L45.574 34.5687L43.6076 43.2527L41.0402 34.727L42.3795 29.3072L41.94 29.3226Z" fill="white"/>
<path d="M27.7566 30.3736C29.1945 29.7676 32.804 28.3446 37.1979 27.4964C39.7497 29.6074 43.6202 44.9429 43.7737 49.3379C43.6202 44.9429 46.666 29.3659 48.8098 27.0909C53.253 27.6537 56.953 28.8214 58.4288 29.3025C60.022 29.8259 63.9133 47.0829 62.813 48.0709C60.2543 50.4067 45.0957 57.3513 44.101 57.386C43.1064 57.4207 27.3846 51.5545 24.6692 49.4029C23.5258 48.4933 26.2046 31.03 27.7566 30.3736Z" fill="url(#paint10_linear_0_67)"/>
<path d="M24.4376 46.7473C25.8777 49.5225 44.1251 57.4084 44.1251 57.4084C44.1251 57.4084 29.9632 53.1085 25.1902 49.7318C25.1902 49.7318 24.4412 49.5032 24.4312 48.554C24.398 47.6056 24.4376 46.7473 24.4376 46.7473Z" fill="url(#paint11_linear_0_67)"/>
<path d="M62.9051 45.4043C61.6621 48.2731 44.0093 57.4123 44.0093 57.4123C44.0093 57.4123 57.8366 52.1354 62.3625 48.434C62.3625 48.434 63.0938 48.1537 63.0375 47.2061C62.9813 46.2585 62.9051 45.4043 62.9051 45.4043Z" fill="url(#paint12_linear_0_67)"/>
<path d="M52.6743 28.3223C52.6743 28.3223 57.6113 29.0994 58.2948 30.7662C58.9552 32.4338 61.6741 44.6366 61.0461 45.886C60.4181 47.1354 53.4699 51.1068 53.4699 51.1068L52.6743 28.3223Z" fill="url(#paint13_linear_0_67)"/>
<path d="M55.558 1.47227C54.9302 1.40156 54.3958 1.35074 53.6523 1.28406C53.3407 3.63407 53.0522 5.98327 52.7629 8.30933C52.6488 8.35964 52.5587 8.43226 52.4447 8.48256C50.4253 3.71272 47.0316 0.704677 41.8502 0.885617C36.6456 1.06736 33.4692 4.28168 31.7867 9.15764C31.6694 9.11541 31.5521 9.07319 31.4572 9.00702C31.0071 6.72994 30.5571 4.45285 30.0806 2.08405C29.413 2.2 28.8372 2.28959 28.1696 2.40554C28.539 4.36121 28.9506 6.1996 29.2234 8.04285C29.3121 8.59558 29.0332 9.23063 28.8915 9.81457C28.8501 9.95497 28.6699 10.1002 28.6747 10.239C28.525 12.5834 28.0985 14.9605 29.3789 17.1392C29.9943 18.183 31.0737 18.5853 32.2392 18.7994C32.7282 18.875 33.317 19.1555 33.5851 19.5398C38.1697 26.1423 47.3066 25.8233 51.4195 18.917C51.6379 18.5389 52.1586 18.1964 52.5725 18.1125C54.6893 17.7143 56.0717 16.1839 56.0429 14.031C56.0232 12.8042 56.0035 11.5775 55.9145 10.3531C55.876 9.91443 55.8095 9.33776 55.5239 9.11614C54.69 8.45047 54.8476 7.65754 54.9796 6.79602C55.1743 5.07541 55.3451 3.33248 55.558 1.47227ZM42.2054 12.3835C41.4041 13.3148 40.8063 14.0999 40.1597 14.8173C38.4862 16.6358 38.4862 16.6358 36.1623 15.7443C33.2982 14.64 33.0771 14.2772 33.5472 11.1574C33.6227 10.6684 33.6281 10.1587 33.8449 9.73423C34.0178 9.3808 34.4667 8.97141 34.7897 8.93697C39.6689 8.72027 44.5727 8.54902 49.4551 8.42484C49.802 8.41273 50.3957 8.83203 50.4524 9.13112C50.7322 10.5109 50.9434 11.9163 51.0389 13.3257C51.0519 13.6958 50.6078 14.244 50.2218 14.4659C49.2003 15.0574 48.1293 15.558 47.0319 15.9669C46.6659 16.0954 46.0133 15.9793 45.7029 15.7122C44.5579 14.7563 43.5005 13.6584 42.2054 12.3835Z" fill="white"/>
<defs>
<linearGradient id="paint0_linear_0_67" x1="23.134" y1="59.7955" x2="246.129" y2="9.74863" gradientUnits="userSpaceOnUse">
<stop stop-color="white"/>
<stop offset="1" stop-color="#6CE3FF"/>
</linearGradient>
<linearGradient id="paint1_linear_0_67" x1="-22.8474" y1="89.6268" x2="275.739" y2="-3.14954" gradientUnits="userSpaceOnUse">
<stop stop-color="#A51AF4"/>
<stop offset="0.7581" stop-color="#6900BC"/>
</linearGradient>
<linearGradient id="paint2_linear_0_67" x1="-20.4512" y1="134.915" x2="248.851" y2="99.9759" gradientUnits="userSpaceOnUse">
<stop stop-color="#A51AF4"/>
<stop offset="0.7581" stop-color="#6900BC"/>
</linearGradient>
<linearGradient id="paint3_linear_0_67" x1="12.0358" y1="60.2889" x2="1007.2" y2="-530.664" gradientUnits="userSpaceOnUse">
<stop stop-color="#A51AF4"/>
<stop offset="0.7581" stop-color="#6900BC"/>
</linearGradient>
<linearGradient id="paint4_linear_0_67" x1="-684.152" y1="288.843" x2="311.035" y2="-302.126" gradientUnits="userSpaceOnUse">
<stop stop-color="#A51AF4"/>
<stop offset="0.7581" stop-color="#6900BC"/>
</linearGradient>
<linearGradient id="paint5_linear_0_67" x1="7.99646" y1="64.3929" x2="87.0927" y2="11.1896" gradientUnits="userSpaceOnUse">
<stop stop-color="white"/>
<stop offset="1" stop-color="#6CE3FF"/>
</linearGradient>
<linearGradient id="paint6_linear_0_67" x1="19.4098" y1="52.6838" x2="84.4744" y2="8.73671" gradientUnits="userSpaceOnUse">
<stop stop-color="#A51AF4"/>
<stop offset="0.7581" stop-color="#6900BC"/>
</linearGradient>
<linearGradient id="paint7_linear_0_67" x1="14.5581" y1="34.2911" x2="78.4559" y2="36.9108" gradientUnits="userSpaceOnUse">
<stop stop-color="#A51AF4"/>
<stop offset="0.7581" stop-color="#6900BC"/>
</linearGradient>
<linearGradient id="paint8_linear_0_67" x1="0.192466" y1="45.9099" x2="86.3217" y2="45.9099" gradientUnits="userSpaceOnUse">
<stop stop-color="white"/>
<stop offset="0.7581" stop-color="#6900BC"/>
</linearGradient>
<linearGradient id="paint9_linear_0_67" x1="0.110232" y1="45.9099" x2="86.2394" y2="45.9099" gradientUnits="userSpaceOnUse">
<stop stop-color="#A51AF4"/>
<stop offset="0.7581" stop-color="white"/>
</linearGradient>
<linearGradient id="paint10_linear_0_67" x1="13.4688" y1="-3.52688" x2="116.852" y2="87.0377" gradientUnits="userSpaceOnUse">
<stop stop-color="#A51AF4"/>
<stop offset="0.7581" stop-color="#6900BC"/>
</linearGradient>
<linearGradient id="paint11_linear_0_67" x1="36.7221" y1="32.5016" x2="76.9293" y2="58.9498" gradientUnits="userSpaceOnUse">
<stop stop-color="#A51AF4"/>
<stop offset="0.7581" stop-color="#6900BC"/>
</linearGradient>
<linearGradient id="paint12_linear_0_67" x1="49.7923" y1="32.5009" x2="9.58424" y2="58.9498" gradientUnits="userSpaceOnUse">
<stop stop-color="#A51AF4"/>
<stop offset="0.7581" stop-color="#6900BC"/>
</linearGradient>
<linearGradient id="paint13_linear_0_67" x1="-32.5635" y1="21.8069" x2="8.27244" y2="85.6299" gradientUnits="userSpaceOnUse">
<stop stop-color="#E36EFF"/>
<stop offset="1" stop-color="#E36EFF" stop-opacity="0"/>
</linearGradient>
</defs>
</svg>