<svg width="30" height="36" viewBox="0 0 30 36" fill="none" xmlns="http://www.w3.org/2000/svg">
<path d="M14.6821 17.5902C17.016 17.5902 19.037 16.7532 20.6883 15.1016C22.3397 13.4503 23.1767 11.4298 23.1767 9.09564C23.1767 6.76224 22.3397 4.74151 20.688 3.08967C19.0365 1.43864 17.0158 0.601562 14.6821 0.601562C12.3479 0.601562 10.3274 1.43864 8.67615 3.08994C7.02484 4.74124 6.1875 6.76197 6.1875 9.09564C6.1875 11.4298 7.02484 13.4506 8.67642 15.1019C10.328 16.7529 12.3487 17.5902 14.6821 17.5902Z" fill="#6E5CF0"/>
<path d="M29.5482 27.7202C29.5005 27.033 29.4042 26.2834 29.2624 25.4918C29.1193 24.6942 28.9349 23.9403 28.7143 23.2512C28.4864 22.5389 28.1764 21.8356 27.7933 21.1616C27.3956 20.462 26.9285 19.8528 26.4043 19.3515C25.8562 18.8271 25.1851 18.4055 24.4091 18.0979C23.6358 17.792 22.7788 17.637 21.8621 17.637C21.5021 17.637 21.1539 17.7847 20.4815 18.2225C20.0677 18.4924 19.5836 18.8045 19.0433 19.1497C18.5813 19.4441 17.9554 19.7198 17.1824 19.9696C16.4282 20.2137 15.6624 20.3374 14.9066 20.3374C14.1508 20.3374 13.3853 20.2137 12.6302 19.9696C11.858 19.7202 11.2321 19.4443 10.7707 19.15C10.2355 18.808 9.75116 18.4959 9.33114 18.2222C8.65953 17.7845 8.31108 17.6367 7.95106 17.6367C7.03406 17.6367 6.17734 17.792 5.40429 18.0981C4.62883 18.4052 3.95749 18.8268 3.40885 19.3518C2.88496 19.8533 2.41759 20.4622 2.02043 21.1616C1.63754 21.8356 1.32757 22.5387 1.0994 23.2514C0.879026 23.9405 0.694711 24.6942 0.551564 25.4918C0.409764 26.2823 0.313436 27.0321 0.26581 27.721C0.218991 28.3958 0.195312 29.0962 0.195312 29.8036C0.195312 31.6447 0.780544 33.135 1.9346 34.2342C3.07439 35.3187 4.58253 35.869 6.41653 35.869H23.3982C25.2322 35.869 26.7398 35.3191 27.8799 34.2342C29.0342 33.1358 29.6194 31.6452 29.6194 29.8034C29.6192 29.0927 29.5952 28.3918 29.5482 27.7202Z" fill="#6E5CF0"/>
</svg>
